<?xml version="1.0" encoding="UTF-8"?>
<svg id="Layer_2" data-name="Layer 2" xmlns="http://www.w3.org/2000/svg" viewBox="0 0 538.28 458.93">
  <defs>
    <style>
      .cls-1 {
        fill: #e2dfdc;
      }

      .cls-2 {
        fill: #ff9600;
      }
    </style>
  </defs>
  <g id="Layer_1-2" data-name="Layer 1">
    <g>
      <g>
        <path class="cls-2" d="M235.74,207.95l66.38,67.5c33.17-12.24,60.51-36.5,76.75-67.5h-143.13Z"/>
        <path class="cls-2" d="M318.77,159.47l67.63-66.22c-12.2-33.33-36.53-60.8-67.63-77.1v143.31Z"/>
        <path class="cls-2" d="M123.26,83.89c-7.99,17.77-12.43,37.47-12.43,58.21,0,15.18,2.39,29.8,6.8,43.52l100.47-101.73h-94.83Z"/>
        <path class="cls-2" d="M311.13,107.17V12.43c-17.77-7.99-37.47-12.43-58.21-12.43-14.74,0-28.95,2.24-42.32,6.41l100.52,100.76Z"/>
        <path class="cls-2" d="M395.03,142.1c0-14.17-2.08-27.86-5.95-40.77l-101.1,98.98h94.61c7.99-17.77,12.43-37.47,12.43-58.21Z"/>
        <path class="cls-2" d="M194.72,177.12v94.64c17.77,7.99,37.47,12.43,58.21,12.43,14.3,0,28.11-2.12,41.13-6.05l-99.34-101.02Z"/>
        <path class="cls-2" d="M187.08,126.17l-66.62,67.45c12.5,32.12,36.35,58.57,66.62,74.43V126.17Z"/>
        <path class="cls-2" d="M269.5,76.25L202.59,9.18c-32.65,12.37-59.56,36.43-75.61,67.07h142.52Z"/>
      </g>
      <g>
        <path class="cls-1" d="M0,358.33h23.02v80.71h49.87v18.76H0v-99.46Z"/>
        <path class="cls-1" d="M154.59,425.83h-57.83c2.13,9.52,10.23,15.35,21.88,15.35,8.1,0,13.92-2.42,19.18-7.39l11.79,12.79c-7.1,8.1-17.76,12.36-31.54,12.36-26.43,0-43.62-16.62-43.62-39.36s17.48-39.36,40.78-39.36,39.79,15.06,39.79,39.64c0,1.71-.28,4.12-.43,5.97ZM96.48,412.9h37.65c-1.56-9.66-8.81-15.91-18.76-15.91s-17.33,6.11-18.9,15.91Z"/>
        <path class="cls-1" d="M215.55,454.1c-4.55,3.27-11.22,4.83-18.04,4.83-18.05,0-28.56-9.24-28.56-27.42v-31.4h-11.79v-17.05h11.79v-18.61h22.17v18.61h19.04v17.05h-19.04v31.12c0,6.54,3.55,10.09,9.52,10.09,3.27,0,6.54-.99,8.95-2.84l5.97,15.63Z"/>
        <path class="cls-1" d="M217.12,450.69l7.39-15.91c6.82,4.4,17.19,7.39,26.57,7.39,10.23,0,14.07-2.7,14.07-6.96,0-12.5-46.18.28-46.18-30.27,0-14.49,13.07-24.72,35.38-24.72,10.51,0,22.17,2.42,29.41,6.68l-7.39,15.77c-7.53-4.26-15.06-5.68-22.02-5.68-9.95,0-14.21,3.13-14.21,7.1,0,13.07,46.18.43,46.18,30.55,0,14.21-13.21,24.3-36.09,24.3-12.93,0-26-3.55-33.11-8.24Z"/>
        <path class="cls-1" d="M384.22,394.42c0,22.17-16.62,35.95-43.2,35.95h-20.03v27.42h-23.02v-99.46h43.05c26.57,0,43.2,13.78,43.2,36.09ZM360.91,394.42c0-10.94-7.1-17.33-21.17-17.33h-18.76v34.53h18.76c14.07,0,21.17-6.39,21.17-17.19Z"/>
        <path class="cls-1" d="M392.75,358.33c0-6.96,5.54-12.36,13.78-12.36s13.78,5.12,13.78,11.94c0,7.39-5.54,12.79-13.78,12.79s-13.78-5.4-13.78-12.36ZM395.45,381.35h22.17v76.44h-22.17v-76.44Z"/>
        <path class="cls-1" d="M428.98,419.57c0-23.02,17.76-39.36,42.63-39.36,16.06,0,28.7,6.96,34.24,19.47l-17.19,9.24c-4.12-7.25-10.23-10.51-17.19-10.51-11.22,0-20.03,7.81-20.03,21.17s8.81,21.17,20.03,21.17c6.96,0,13.07-3.13,17.19-10.51l17.19,9.38c-5.54,12.22-18.19,19.32-34.24,19.32-24.87,0-42.63-16.34-42.63-39.36Z"/>
      </g>
      <path class="cls-1" d="M538.28,374.12c0,8.92-6.95,15.91-15.87,15.91s-15.78-6.99-15.78-15.82,6.86-15.83,15.87-15.83,15.78,6.81,15.78,15.74ZM535.23,374.12c0-7.31-5.33-12.82-12.73-12.82s-12.78,5.65-12.78,12.91,5.38,12.91,12.69,12.91,12.82-5.69,12.82-13ZM527.47,377.08l3.81,5.83h-4.66l-3.27-5.02h-3.09v5.02h-4.66v-17.39h7.58c4.75,0,7.58,2.42,7.58,6.19,0,2.56-1.17,4.39-3.27,5.38ZM522.86,374.39c2.11,0,3.32-.99,3.32-2.69s-1.21-2.73-3.32-2.73h-2.65v5.42h2.65Z"/>
    </g>
  </g>
</svg>