<?xml version="1.0" encoding="UTF-8"?>
<svg id="Layer_2" data-name="Layer 2" xmlns="http://www.w3.org/2000/svg" viewBox="0 0 284.2 284.2">
  <defs>
    <style>
      .cls-1 {
        fill: #ff9600;
      }
    </style>
  </defs>
  <g id="Layer_1-2" data-name="Layer 1">
    <g>
      <path class="cls-1" d="M124.91,207.95l66.38,67.5c33.17-12.24,60.51-36.5,76.75-67.5H124.91Z"/>
      <path class="cls-1" d="M207.95,159.47l67.63-66.22c-12.2-33.33-36.53-60.8-67.63-77.1v143.31Z"/>
      <path class="cls-1" d="M12.43,83.89C4.45,101.66,0,121.36,0,142.1c0,15.18,2.39,29.8,6.8,43.52l100.47-101.73H12.43Z"/>
      <path class="cls-1" d="M200.31,107.17V12.43C182.54,4.45,162.84,0,142.1,0c-14.74,0-28.95,2.24-42.32,6.41l100.52,100.76Z"/>
      <path class="cls-1" d="M284.2,142.1c0-14.17-2.08-27.86-5.95-40.77l-101.1,98.98h94.61c7.99-17.77,12.43-37.47,12.43-58.21Z"/>
      <path class="cls-1" d="M83.89,177.12v94.64c17.77,7.99,37.47,12.43,58.21,12.43,14.3,0,28.11-2.12,41.13-6.05l-99.34-101.02Z"/>
      <path class="cls-1" d="M76.25,126.17L9.63,193.62c12.5,32.12,36.35,58.57,66.62,74.43V126.17Z"/>
      <path class="cls-1" d="M158.67,76.25L91.76,9.18C59.11,21.56,32.21,45.61,16.16,76.25h142.52Z"/>
    </g>
  </g>
</svg>