<svg xmlns="http://www.w3.org/2000/svg" xmlns:xlink="http://www.w3.org/1999/xlink" width="64" zoomAndPan="magnify" viewBox="0 0 48 48" height="64" preserveAspectRatio="xMidYMid meet" version="1.0"><defs><filter x="0%" y="0%" width="100%" height="100%" id="6cd5dca4a6"><feColorMatrix values="0 0 0 0 1 0 0 0 0 1 0 0 0 0 1 0 0 0 1 0" color-interpolation-filters="sRGB"/></filter><clipPath id="14718e5ba8"><path class="Lesser" d="M 35 1.917969 L 45.753906 1.917969 L 45.753906 13 L 35 13 Z M 35 1.917969 " clip-rule="nonzero"/></clipPath><clipPath id="2a0719ad73"><path d="M 2.40625 1.917969 L 13 1.917969 L 13 13 L 2.40625 13 Z M 2.40625 1.917969 " clip-rule="nonzero"/></clipPath><clipPath id="71d21e9aa1"><path d="M 35 35 L 45.753906 35 L 45.753906 45.265625 L 35 45.265625 Z M 35 35 " clip-rule="nonzero"/></clipPath><clipPath id="0ccfc5a59a"><path d="M 2.40625 35 L 13 35 L 13 45.265625 L 2.40625 45.265625 Z M 2.40625 35 " clip-rule="nonzero"/></clipPath><clipPath id="04c8814219"><path d="M 6.277344 10 L 37 10 L 37 41.273438 L 6.277344 41.273438 Z M 6.277344 10 " clip-rule="nonzero"/></clipPath><clipPath id="91ee1a9f50"><path d="M 26 6.007812 L 41.542969 6.007812 L 41.542969 21 L 26 21 Z M 26 6.007812 " clip-rule="nonzero"/></clipPath><mask id="bd75534157"><g filter="url(#6cd5dca4a6)"><rect x="-4.8" width="57.6" fill="#000000" y="-4.8" height="57.6" fill-opacity="0.1"/></g></mask><clipPath id="45981b99c0"><path d="M 0.230469 0.738281 L 7 0.738281 L 7 7.320312 L 0.230469 7.320312 Z M 0.230469 0.738281 " clip-rule="nonzero"/></clipPath><clipPath id="73eb1dc58e"><rect x="0" width="8" y="0" height="8"/></clipPath><clipPath id="d2ea99c561"><path d="M 6.277344 10 L 28 10 L 28 30 L 6.277344 30 Z M 6.277344 10 " clip-rule="nonzero"/></clipPath><mask id="799331bb6a"><g filter="url(#6cd5dca4a6)"><rect x="-4.8" width="57.6" fill="#000000" y="-4.8" height="57.6" fill-opacity="0.1"/></g></mask><clipPath id="99d8433792"><path d="M 0.277344 0.109375 L 21.996094 0.109375 L 21.996094 19 L 0.277344 19 Z M 0.277344 0.109375 " clip-rule="nonzero"/></clipPath><clipPath id="4863c49304"><rect x="0" width="22" y="0" height="20"/></clipPath><clipPath id="040bfa1c20"><path d="M 26 6.007812 L 38 6.007812 L 38 16 L 26 16 Z M 26 6.007812 " clip-rule="nonzero"/></clipPath><mask id="be9c9c65d1"><g filter="url(#6cd5dca4a6)"><rect x="-4.8" width="57.6" fill="#000000" y="-4.8" height="57.6" fill-opacity="0.1"/></g></mask><clipPath id="62d203e560"><path d="M 0.820312 0.0078125 L 11.871094 0.0078125 L 11.871094 9.28125 L 0.820312 9.28125 Z M 0.820312 0.0078125 " clip-rule="nonzero"/></clipPath><clipPath id="e1add7617c"><rect x="0" width="12" y="0" height="10"/></clipPath></defs><g clip-path="url(#14718e5ba8)"><path fill="#383735" d="M 45.753906 12.097656 L 41.683594 12.097656 L 41.683594 8.035156 C 41.683594 6.90625 40.761719 5.988281 39.632812 5.988281 L 35.570312 5.988281 L 35.570312 1.917969 L 39.632812 1.917969 C 43.007812 1.917969 45.753906 4.664062 45.753906 8.039062 L 45.753906 12.101562 Z M 45.753906 12.097656 " fill-opacity="1" fill-rule="nonzero"/></g><g clip-path="url(#2a0719ad73)"><path fill="#383735" d="M 2.40625 12.097656 L 6.480469 12.097656 C 6.480469 12.097656 6.480469 8.035156 6.480469 8.035156 C 6.480469 6.90625 7.398438 5.988281 8.527344 5.988281 L 12.589844 5.988281 C 12.589844 5.988281 12.589844 1.914062 12.589844 1.914062 L 8.527344 1.914062 C 5.152344 1.917969 2.40625 4.664062 2.40625 8.039062 L 2.40625 12.101562 Z M 2.40625 12.097656 " fill-opacity="1" fill-rule="nonzero"/></g><g clip-path="url(#71d21e9aa1)"><path fill="#383735" d="M 45.753906 35.082031 L 41.683594 35.082031 L 41.683594 39.144531 C 41.683594 40.273438 40.761719 41.195312 39.632812 41.195312 L 35.570312 41.195312 L 35.570312 45.265625 L 39.632812 45.265625 C 43.007812 45.265625 45.753906 42.519531 45.753906 39.144531 Z M 45.753906 35.082031 " fill-opacity="1" fill-rule="nonzero"/></g><g clip-path="url(#0ccfc5a59a)"><path fill="#383735" d="M 2.40625 35.082031 L 6.480469 35.082031 C 6.480469 35.082031 6.480469 39.144531 6.480469 39.144531 C 6.480469 40.273438 7.398438 41.195312 8.527344 41.195312 L 12.589844 41.195312 C 12.589844 41.195312 12.589844 45.265625 12.589844 45.265625 L 8.527344 45.265625 C 5.152344 45.265625 2.40625 42.519531 2.40625 39.144531 Z M 2.40625 35.082031 " fill-opacity="1" fill-rule="nonzero"/></g><g clip-path="url(#04c8814219)"><path fill="#ff6d4d" d="M 21.628906 10.363281 C 24.253906 17.460938 29.851562 23.058594 36.953125 25.6875 C 29.851562 28.316406 24.253906 33.914062 21.628906 41.011719 C 19 33.914062 13.402344 28.316406 6.300781 25.6875 C 13.402344 23.058594 19 17.460938 21.628906 10.363281 Z M 21.628906 10.363281 " fill-opacity="1" fill-rule="nonzero"/></g><g clip-path="url(#91ee1a9f50)"><path fill="#ff6d4d" d="M 34.304688 6.007812 C 34.753906 9.882812 37.8125 12.941406 41.6875 13.390625 C 37.8125 13.835938 34.753906 16.894531 34.304688 20.769531 C 33.859375 16.894531 30.800781 13.835938 26.925781 13.390625 C 30.800781 12.941406 33.859375 9.882812 34.304688 6.007812 Z M 34.304688 6.007812 " fill-opacity="1" fill-rule="nonzero"/></g><path fill="#ff6d4d" d="M 31.65625 31.742188 C 31.847656 33.429688 33.179688 34.761719 34.871094 34.957031 C 33.179688 35.152344 31.847656 36.484375 31.65625 38.175781 C 31.460938 36.484375 30.128906 35.152344 28.4375 34.957031 C 30.128906 34.761719 31.460938 33.429688 31.65625 31.742188 Z M 31.65625 31.742188 " fill-opacity="1" fill-rule="nonzero"/><g mask="url(#bd75534157)"><g transform="matrix(1, 0, 0, 1, 28, 31)"><g clip-path="url(#73eb1dc58e)"><g clip-path="url(#45981b99c0)"><path fill="#ffffff" d="M 3.65625 0.742188 C 3.847656 2.429688 5.179688 3.761719 6.871094 3.957031 C 5.179688 4.152344 3.847656 5.484375 3.65625 7.175781 C 3.460938 5.484375 2.128906 4.152344 0.4375 3.957031 C 2.128906 3.761719 3.460938 2.429688 3.65625 0.742188 Z M 3.65625 0.742188 " fill-opacity="1" fill-rule="nonzero"/></g></g></g></g><g clip-path="url(#d2ea99c561)"><g mask="url(#799331bb6a)"><g transform="matrix(1, 0, 0, 1, 6, 10)"><g clip-path="url(#4863c49304)"><g clip-path="url(#99d8433792)"><path fill="#ffffff" d="M 21.8125 9.898438 C 19.101562 7.246094 16.972656 4.003906 15.628906 0.363281 C 13 7.460938 7.402344 13.058594 0.300781 15.6875 C 2.53125 16.511719 4.609375 17.628906 6.496094 18.992188 C 9.996094 14.332031 15.460938 10.976562 21.8125 9.898438 Z M 21.8125 9.898438 " fill-opacity="1" fill-rule="nonzero"/></g></g></g></g></g><g clip-path="url(#040bfa1c20)"><g mask="url(#be9c9c65d1)"><g transform="matrix(1, 0, 0, 1, 26, 6)"><g clip-path="url(#e1add7617c)"><g clip-path="url(#62d203e560)"><path fill="#ffffff" d="M 11.613281 5.765625 C 9.816406 4.414062 8.578125 2.363281 8.304688 0.0078125 C 7.859375 3.882812 4.800781 6.941406 0.925781 7.390625 C 2.460938 7.566406 3.867188 8.15625 5.035156 9.039062 C 6.945312 7.523438 9.179688 6.390625 11.613281 5.765625 Z M 11.613281 5.765625 " fill-opacity="1" fill-rule="nonzero"/></g></g></g></g></g><path fill="#f4efdc" d="M 22.539062 21.632812 L 19.914062 28.714844 L 21.636719 28.714844 C 21.636719 28.714844 22.070312 27.546875 22.070312 27.546875 L 24.761719 27.546875 C 24.761719 27.546875 25.203125 28.714844 25.203125 28.714844 L 26.925781 28.714844 C 26.925781 28.714844 24.296875 21.632812 24.296875 21.632812 Z M 22.59375 26.117188 L 23.425781 23.921875 L 24.234375 26.117188 Z M 22.59375 26.117188 " fill-opacity="1" fill-rule="nonzero"/><path fill="#f4efdc" d="M 17.195312 21.632812 L 18.882812 21.632812 L 18.882812 28.714844 L 17.195312 28.714844 Z M 17.195312 21.632812 " fill-opacity="1" fill-rule="nonzero"/></svg>