<svg xmlns="http://www.w3.org/2000/svg" xmlns:xlink="http://www.w3.org/1999/xlink" width="64" zoomAndPan="magnify" viewBox="0 0 48 48" height="64" preserveAspectRatio="xMidYMid meet" version="1.0"><defs><filter x="0%" y="0%" width="100%" height="100%" id="7b5523cc85"><feColorMatrix values="0 0 0 0 1 0 0 0 0 1 0 0 0 0 1 0 0 0 1 0" color-interpolation-filters="sRGB"/></filter><clipPath id="f845b5687d"><path d="M 1.925781 7 L 41 7 L 41 45.058594 L 1.925781 45.058594 Z M 1.925781 7 " clip-rule="nonzero"/></clipPath><clipPath id="23d29b8a6e"><path d="M 27 1.714844 L 46.007812 1.714844 L 46.007812 21 L 27 21 Z M 27 1.714844 " clip-rule="nonzero"/></clipPath><mask id="cf95b1721d"><g filter="url(#7b5523cc85)"><rect x="-4.8" width="57.6" fill="#000000" y="-4.8" height="57.6" fill-opacity="0.1"/></g></mask><clipPath id="f5963d8246"><path d="M 0.40625 0.621094 L 8.636719 0.621094 L 8.636719 8.847656 L 0.40625 8.847656 Z M 0.40625 0.621094 " clip-rule="nonzero"/></clipPath><clipPath id="b1f959a5a6"><rect x="0" width="9" y="0" height="9"/></clipPath><clipPath id="c25e389f9a"><path d="M 1.925781 7 L 29 7 L 29 31 L 1.925781 31 Z M 1.925781 7 " clip-rule="nonzero"/></clipPath><mask id="bdfe0154a4"><g filter="url(#7b5523cc85)"><rect x="-4.8" width="57.6" fill="#000000" y="-4.8" height="57.6" fill-opacity="0.1"/></g></mask><clipPath id="dd2a9bdad3"><path d="M 0.925781 0.0546875 L 27.9375 0.0546875 L 27.9375 23.5625 L 0.925781 23.5625 Z M 0.925781 0.0546875 " clip-rule="nonzero"/></clipPath><clipPath id="707143edc2"><rect x="0" width="28" y="0" height="24"/></clipPath><clipPath id="22de299d3a"><path d="M 27 1.714844 L 42 1.714844 L 42 14 L 27 14 Z M 27 1.714844 " clip-rule="nonzero"/></clipPath><mask id="7a57344080"><g filter="url(#7b5523cc85)"><rect x="-4.8" width="57.6" fill="#000000" y="-4.8" height="57.6" fill-opacity="0.1"/></g></mask><clipPath id="69c284e89a"><path d="M 0.527344 0.714844 L 14 0.714844 L 14 12 L 0.527344 12 Z M 0.527344 0.714844 " clip-rule="nonzero"/></clipPath><clipPath id="a4a2808cd4"><rect x="0" width="15" y="0" height="13"/></clipPath><clipPath id="e76cbd6127"><path d="M 0.488281 45 L 4 45 L 4 47.019531 L 0.488281 47.019531 Z M 0.488281 45 " clip-rule="nonzero"/></clipPath><clipPath id="f6334d28dc"><path d="M 2.714844 47.25 L 1.808594 46.347656 C 1.121094 45.667969 0.00390625 45.667969 -0.679688 46.347656 C -0.679688 46.347656 -11.660156 57.328125 -11.667969 57.339844 C -12.351562 58.019531 -12.359375 59.152344 -11.671875 59.832031 C -11.671875 59.832031 -10.773438 60.730469 -10.769531 60.734375 C -10.09375 61.410156 -8.953125 61.417969 -8.277344 60.734375 L -5.289062 57.746094 C -5.101562 57.558594 -5.101562 57.253906 -5.289062 57.066406 C -5.476562 56.878906 -5.78125 56.878906 -5.96875 57.066406 C -5.96875 57.066406 -8.953125 60.054688 -8.960938 60.058594 C -9.269531 60.367188 -9.78125 60.367188 -10.089844 60.054688 C -10.089844 60.054688 -10.992188 59.152344 -10.996094 59.152344 C -11.304688 58.839844 -11.304688 58.328125 -10.992188 58.019531 L -4.636719 51.664062 L -2.601562 53.699219 L -4.609375 55.707031 C -4.796875 55.894531 -4.796875 56.199219 -4.609375 56.386719 C -4.421875 56.574219 -4.117188 56.574219 -3.929688 56.386719 L 2.714844 49.742188 C 3.398438 49.058594 3.398438 47.941406 2.714844 47.25 Z M -3.957031 50.984375 L -2.824219 49.851562 L -0.789062 51.886719 L -1.921875 53.019531 Z M 2.035156 49.0625 L -0.109375 51.207031 L -2.144531 49.171875 L 0 47.027344 C 0.308594 46.71875 0.816406 46.71875 1.132812 47.027344 L 2.035156 47.929688 C 2.34375 48.242188 2.347656 48.753906 2.035156 49.0625 Z M 2.035156 49.0625 " clip-rule="nonzero"/></clipPath><linearGradient x1="1500.742622" gradientTransform="matrix(0.0128047, 0, 0, 0.0128047, -18.726754, 35.777092)" y1="1387.28296" x2="1727.866212" gradientUnits="userSpaceOnUse" y2="1387.28296" id="0bf6abbf74"><stop stop-opacity="1" stop-color="rgb(99.716187%, 66.088867%, 0%)" offset="0"/><stop stop-opacity="1" stop-color="rgb(99.719238%, 66.28418%, 0%)" offset="0.0625"/><stop stop-opacity="1" stop-color="rgb(99.726868%, 66.673279%, 0%)" offset="0.125"/><stop stop-opacity="1" stop-color="rgb(99.732971%, 67.063904%, 0%)" offset="0.1875"/><stop stop-opacity="1" stop-color="rgb(99.740601%, 67.454529%, 0%)" offset="0.25"/><stop stop-opacity="1" stop-color="rgb(99.74823%, 67.845154%, 0%)" offset="0.3125"/><stop stop-opacity="1" stop-color="rgb(99.755859%, 68.234253%, 0%)" offset="0.375"/><stop stop-opacity="1" stop-color="rgb(99.763489%, 68.624878%, 0%)" offset="0.4375"/><stop stop-opacity="1" stop-color="rgb(99.771118%, 69.015503%, 0%)" offset="0.5"/><stop stop-opacity="1" stop-color="rgb(99.778748%, 69.406128%, 0%)" offset="0.5625"/><stop stop-opacity="1" stop-color="rgb(99.786377%, 69.796753%, 0%)" offset="0.625"/><stop stop-opacity="1" stop-color="rgb(99.794006%, 70.185852%, 0%)" offset="0.6875"/><stop stop-opacity="1" stop-color="rgb(99.801636%, 70.576477%, 0%)" offset="0.75"/><stop stop-opacity="1" stop-color="rgb(99.809265%, 70.967102%, 0%)" offset="0.8125"/><stop stop-opacity="1" stop-color="rgb(99.816895%, 71.357727%, 0%)" offset="0.875"/><stop stop-opacity="1" stop-color="rgb(99.824524%, 71.748352%, 0%)" offset="0.9375"/><stop stop-opacity="1" stop-color="rgb(99.832153%, 72.137451%, 0%)" offset="1"/></linearGradient><clipPath id="f00b04dda0"><path d="M 3 43 L 6 43 L 6 46 L 3 46 Z M 3 43 " clip-rule="nonzero"/></clipPath><clipPath id="cdd76d8829"><path d="M 3.996094 45.746094 C 3.996094 45.746094 5.277344 44.464844 5.277344 44.464844 C 5.464844 44.277344 5.464844 43.976562 5.277344 43.789062 C 5.089844 43.601562 4.785156 43.601562 4.597656 43.789062 L 3.316406 45.066406 C 3.128906 45.253906 3.128906 45.558594 3.316406 45.746094 C 3.496094 45.925781 3.808594 45.933594 3.996094 45.746094 Z M 3.996094 45.746094 " clip-rule="nonzero"/></clipPath><linearGradient x1="1706.821314" gradientTransform="matrix(0.0128047, 0, 0, 0.0128047, -18.726754, 35.777092)" y1="701.966" x2="1889.145503" gradientUnits="userSpaceOnUse" y2="701.966" id="7a6eb7ae47"><stop stop-opacity="1" stop-color="rgb(99.824524%, 71.754456%, 0%)" offset="0"/><stop stop-opacity="1" stop-color="rgb(99.827576%, 71.910095%, 0%)" offset="0.0625"/><stop stop-opacity="1" stop-color="rgb(99.833679%, 72.224426%, 0%)" offset="0.125"/><stop stop-opacity="1" stop-color="rgb(99.839783%, 72.537231%, 0%)" offset="0.1875"/><stop stop-opacity="1" stop-color="rgb(99.845886%, 72.850037%, 0%)" offset="0.25"/><stop stop-opacity="1" stop-color="rgb(99.85199%, 73.164368%, 0%)" offset="0.3125"/><stop stop-opacity="1" stop-color="rgb(99.858093%, 73.477173%, 0%)" offset="0.375"/><stop stop-opacity="1" stop-color="rgb(99.864197%, 73.789978%, 0%)" offset="0.4375"/><stop stop-opacity="1" stop-color="rgb(99.8703%, 74.104309%, 0%)" offset="0.5"/><stop stop-opacity="1" stop-color="rgb(99.876404%, 74.417114%, 0%)" offset="0.5625"/><stop stop-opacity="1" stop-color="rgb(99.882507%, 74.731445%, 0%)" offset="0.625"/><stop stop-opacity="1" stop-color="rgb(99.888611%, 75.04425%, 0%)" offset="0.6875"/><stop stop-opacity="1" stop-color="rgb(99.894714%, 75.357056%, 0%)" offset="0.75"/><stop stop-opacity="1" stop-color="rgb(99.900818%, 75.671387%, 0%)" offset="0.8125"/><stop stop-opacity="1" stop-color="rgb(99.906921%, 75.984192%, 0%)" offset="0.875"/><stop stop-opacity="1" stop-color="rgb(99.913025%, 76.296997%, 0%)" offset="0.9375"/><stop stop-opacity="1" stop-color="rgb(99.919128%, 76.611328%, 0%)" offset="1"/></linearGradient><clipPath id="0a81aabe4b"><path d="M 3 46 L 6.546875 46 L 6.546875 47.019531 L 3 47.019531 Z M 3 46 " clip-rule="nonzero"/></clipPath><clipPath id="857b3cdfb7"><path d="M 6.261719 46.847656 L 4.449219 46.847656 C 4.1875 46.847656 3.972656 47.0625 3.972656 47.328125 C 3.972656 47.59375 4.1875 47.808594 4.449219 47.808594 L 6.261719 47.808594 C 6.527344 47.808594 6.742188 47.59375 6.742188 47.328125 C 6.742188 47.0625 6.527344 46.847656 6.261719 46.847656 Z M 6.261719 46.847656 " clip-rule="nonzero"/></clipPath><linearGradient x1="1772.59281" gradientTransform="matrix(0.0128047, 0, 0, 0.0128047, -18.726754, 35.777092)" y1="902.11102" x2="1973.759146" gradientUnits="userSpaceOnUse" y2="902.11102" id="62f2efdf74"><stop stop-opacity="1" stop-color="rgb(99.859619%, 73.562622%, 0%)" offset="0"/><stop stop-opacity="1" stop-color="rgb(99.862671%, 73.735046%, 0%)" offset="0.0625"/><stop stop-opacity="1" stop-color="rgb(99.8703%, 74.081421%, 0%)" offset="0.125"/><stop stop-opacity="1" stop-color="rgb(99.876404%, 74.42627%, 0%)" offset="0.1875"/><stop stop-opacity="1" stop-color="rgb(99.882507%, 74.772644%, 0%)" offset="0.25"/><stop stop-opacity="1" stop-color="rgb(99.890137%, 75.119019%, 0%)" offset="0.3125"/><stop stop-opacity="1" stop-color="rgb(99.89624%, 75.463867%, 0%)" offset="0.375"/><stop stop-opacity="1" stop-color="rgb(99.902344%, 75.810242%, 0%)" offset="0.4375"/><stop stop-opacity="1" stop-color="rgb(99.909973%, 76.15509%, 0%)" offset="0.5"/><stop stop-opacity="1" stop-color="rgb(99.916077%, 76.501465%, 0%)" offset="0.5625"/><stop stop-opacity="1" stop-color="rgb(99.923706%, 76.846313%, 0%)" offset="0.625"/><stop stop-opacity="1" stop-color="rgb(99.92981%, 77.192688%, 0%)" offset="0.6875"/><stop stop-opacity="1" stop-color="rgb(99.935913%, 77.537537%, 0%)" offset="0.75"/><stop stop-opacity="1" stop-color="rgb(99.943542%, 77.883911%, 0%)" offset="0.8125"/><stop stop-opacity="1" stop-color="rgb(99.949646%, 78.230286%, 0%)" offset="0.875"/><stop stop-opacity="1" stop-color="rgb(99.95575%, 78.575134%, 0%)" offset="0.9375"/><stop stop-opacity="1" stop-color="rgb(99.963379%, 78.921509%, 0%)" offset="1"/></linearGradient><clipPath id="c00218ed3f"><path d="M 1 42.320312 L 3 42.320312 L 3 46 L 1 46 Z M 1 42.320312 " clip-rule="nonzero"/></clipPath><clipPath id="d28209b683"><path d="M 1.734375 45.09375 C 2 45.09375 2.214844 44.878906 2.214844 44.613281 L 2.214844 42.800781 C 2.214844 42.535156 2 42.320312 1.734375 42.320312 C 1.46875 42.320312 1.253906 42.535156 1.253906 42.800781 L 1.253906 44.613281 C 1.253906 44.878906 1.46875 45.09375 1.734375 45.09375 Z M 1.734375 45.09375 " clip-rule="nonzero"/></clipPath><linearGradient x1="1560.483442" gradientTransform="matrix(0.0128047, 0, 0, 0.0128047, -18.726754, 35.777092)" y1="619.26099" x2="1635.483438" gradientUnits="userSpaceOnUse" y2="619.26099" id="aef1992b6f"><stop stop-opacity="1" stop-color="rgb(99.746704%, 67.730713%, 0%)" offset="0"/><stop stop-opacity="1" stop-color="rgb(99.749756%, 67.858887%, 0%)" offset="0.125"/><stop stop-opacity="1" stop-color="rgb(99.754333%, 68.11676%, 0%)" offset="0.25"/><stop stop-opacity="1" stop-color="rgb(99.758911%, 68.374634%, 0%)" offset="0.375"/><stop stop-opacity="1" stop-color="rgb(99.763489%, 68.632507%, 0%)" offset="0.5"/><stop stop-opacity="1" stop-color="rgb(99.769592%, 68.890381%, 0%)" offset="0.625"/><stop stop-opacity="1" stop-color="rgb(99.77417%, 69.148254%, 0%)" offset="0.75"/><stop stop-opacity="1" stop-color="rgb(99.778748%, 69.406128%, 0%)" offset="0.875"/><stop stop-opacity="1" stop-color="rgb(99.783325%, 69.664001%, 0%)" offset="1"/></linearGradient></defs><g clip-path="url(#f845b5687d)"><path fill="#ffbd59" d="M 21.046875 7.132812 C 24.320312 15.976562 31.292969 22.949219 40.132812 26.21875 C 31.292969 29.492188 24.320312 36.464844 21.046875 45.304688 C 17.773438 36.464844 10.804688 29.492188 1.960938 26.21875 C 10.804688 22.949219 17.773438 15.976562 21.046875 7.132812 Z M 21.046875 7.132812 " fill-opacity="1" fill-rule="nonzero"/></g><g clip-path="url(#23d29b8a6e)"><path fill="#ffbd59" d="M 36.835938 1.714844 C 37.394531 6.539062 41.203125 10.347656 46.027344 10.90625 C 41.203125 11.460938 37.394531 15.269531 36.835938 20.09375 C 36.277344 15.269531 32.472656 11.460938 27.644531 10.90625 C 32.472656 10.347656 36.277344 6.539062 36.835938 1.714844 Z M 36.835938 1.714844 " fill-opacity="1" fill-rule="nonzero"/></g><path fill="#ffbd59" d="M 33.535156 33.761719 C 33.777344 35.863281 35.4375 37.523438 37.539062 37.765625 C 35.4375 38.007812 33.777344 39.667969 33.535156 41.769531 C 33.292969 39.667969 31.632812 38.007812 29.53125 37.765625 C 31.632812 37.523438 33.292969 35.863281 33.535156 33.761719 Z M 33.535156 33.761719 " fill-opacity="1" fill-rule="nonzero"/><g mask="url(#cf95b1721d)"><g transform="matrix(1, 0, 0, 1, 29, 33)"><g clip-path="url(#b1f959a5a6)"><g clip-path="url(#f5963d8246)"><path fill="#ff3131" d="M 4.535156 0.761719 C 4.777344 2.863281 6.4375 4.523438 8.539062 4.765625 C 6.4375 5.007812 4.777344 6.667969 4.535156 8.769531 C 4.292969 6.667969 2.632812 5.007812 0.53125 4.765625 C 2.632812 4.523438 4.292969 2.863281 4.535156 0.761719 Z M 4.535156 0.761719 " fill-opacity="1" fill-rule="nonzero"/></g></g></g></g><g clip-path="url(#c25e389f9a)"><g mask="url(#bdfe0154a4)"><g transform="matrix(1, 0, 0, 1, 1, 7)"><g clip-path="url(#707143edc2)"><g clip-path="url(#dd2a9bdad3)"><path fill="#ff3131" d="M 27.75 12.007812 C 24.375 8.707031 21.722656 4.667969 20.046875 0.136719 C 16.773438 8.976562 9.804688 15.949219 0.960938 19.21875 C 3.738281 20.246094 6.328125 21.640625 8.679688 23.339844 C 13.035156 17.53125 19.839844 13.351562 27.75 12.007812 Z M 27.75 12.007812 " fill-opacity="1" fill-rule="nonzero"/></g></g></g></g></g><g clip-path="url(#22de299d3a)"><g mask="url(#7a57344080)"><g transform="matrix(1, 0, 0, 1, 27, 1)"><g clip-path="url(#a4a2808cd4)"><g clip-path="url(#69c284e89a)"><path fill="#ff3131" d="M 13.953125 7.882812 C 11.714844 6.203125 10.175781 3.644531 9.835938 0.714844 C 9.277344 5.539062 5.472656 9.347656 0.644531 9.90625 C 2.558594 10.125 4.308594 10.859375 5.761719 11.960938 C 8.144531 10.074219 10.921875 8.664062 13.953125 7.882812 Z M 13.953125 7.882812 " fill-opacity="1" fill-rule="nonzero"/></g></g></g></g></g><path fill="#ffffff" d="M 22.183594 21.171875 L 18.914062 29.992188 L 21.058594 29.992188 C 21.058594 29.992188 21.597656 28.535156 21.597656 28.535156 L 24.949219 28.535156 C 24.949219 28.535156 25.5 29.992188 25.5 29.992188 L 27.644531 29.992188 C 27.644531 29.992188 24.371094 21.171875 24.371094 21.171875 Z M 22.25 26.757812 L 23.285156 24.019531 L 24.292969 26.757812 Z M 22.25 26.757812 " fill-opacity="1" fill-rule="nonzero"/><path fill="#ffffff" d="M 15.527344 21.171875 L 17.632812 21.171875 L 17.632812 29.992188 L 15.527344 29.992188 Z M 15.527344 21.171875 " fill-opacity="1" fill-rule="nonzero"/><g clip-path="url(#e76cbd6127)"><g clip-path="url(#f6334d28dc)"><path fill="url(#0bf6abbf74)" d="M 0.488281 45.667969 L 0.488281 47.019531 L 3.398438 47.019531 L 3.398438 45.667969 Z M 0.488281 45.667969 " fill-rule="nonzero"/></g></g><g clip-path="url(#f00b04dda0)"><g clip-path="url(#cdd76d8829)"><path fill="url(#7a6eb7ae47)" d="M 3.128906 43.601562 L 3.128906 45.933594 L 5.464844 45.933594 L 5.464844 43.601562 Z M 3.128906 43.601562 " fill-rule="nonzero"/></g></g><g clip-path="url(#0a81aabe4b)"><g clip-path="url(#857b3cdfb7)"><path fill="url(#62f2efdf74)" d="M 3.972656 46.847656 L 3.972656 47.019531 L 6.546875 47.019531 L 6.546875 46.847656 Z M 3.972656 46.847656 " fill-rule="nonzero"/></g></g><g clip-path="url(#c00218ed3f)"><g clip-path="url(#d28209b683)"><path fill="url(#aef1992b6f)" d="M 1.253906 42.320312 L 1.253906 45.09375 L 2.214844 45.09375 L 2.214844 42.320312 Z M 1.253906 42.320312 " fill-rule="nonzero"/></g></g></svg>