<svg xmlns="http://www.w3.org/2000/svg" xmlns:xlink="http://www.w3.org/1999/xlink" width="64" zoomAndPan="magnify" viewBox="0 0 48 48" height="64" preserveAspectRatio="xMidYMid meet" version="1.0"><defs><filter x="0%" y="0%" width="100%" height="100%" id="11a138ae8a"><feColorMatrix values="0 0 0 0 1 0 0 0 0 1 0 0 0 0 1 0 0 0 1 0" color-interpolation-filters="sRGB"/></filter><clipPath id="a11bc812f4"><path d="M 12.277344 6 L 37 6 L 37 31.117188 L 12.277344 31.117188 Z M 12.277344 6 " clip-rule="nonzero"/></clipPath><clipPath id="8d1b95bda0"><path d="M 28 3.199219 L 40.195312 3.199219 L 40.195312 15 L 28 15 Z M 28 3.199219 " clip-rule="nonzero"/></clipPath><mask id="77b971919c"><g filter="url(#11a138ae8a)"><rect x="-4.8" width="57.6" fill="#000000" y="-4.8" height="57.6" fill-opacity="0.1"/></g></mask><clipPath id="a9b77ead03"><path d="M 0.878906 0.511719 L 6.285156 0.511719 L 6.285156 5.917969 L 0.878906 5.917969 Z M 0.878906 0.511719 " clip-rule="nonzero"/></clipPath><clipPath id="c6da44bd1a"><rect x="0" width="7" y="0" height="6"/></clipPath><clipPath id="fcc6b15ac0"><path d="M 12.277344 6 L 30 6 L 30 22 L 12.277344 22 Z M 12.277344 6 " clip-rule="nonzero"/></clipPath><mask id="d55cd5e3be"><g filter="url(#11a138ae8a)"><rect x="-4.8" width="57.6" fill="#000000" y="-4.8" height="57.6" fill-opacity="0.1"/></g></mask><clipPath id="cfcd688267"><path d="M 0.277344 0.582031 L 17.640625 0.582031 L 17.640625 15.628906 L 0.277344 15.628906 Z M 0.277344 0.582031 " clip-rule="nonzero"/></clipPath><clipPath id="ec7932083e"><rect x="0" width="18" y="0" height="16"/></clipPath><clipPath id="d3a45bb935"><path d="M 28 3.199219 L 38 3.199219 L 38 11 L 28 11 Z M 28 3.199219 " clip-rule="nonzero"/></clipPath><mask id="6d52b28ab5"><g filter="url(#11a138ae8a)"><rect x="-4.8" width="57.6" fill="#000000" y="-4.8" height="57.6" fill-opacity="0.1"/></g></mask><clipPath id="68b472342e"><path d="M 0.46875 0.199219 L 9.402344 0.199219 L 9.402344 7.578125 L 0.46875 7.578125 Z M 0.46875 0.199219 " clip-rule="nonzero"/></clipPath><clipPath id="fdc89776af"><rect x="0" width="10" y="0" height="8"/></clipPath><clipPath id="8b6fe06434"><path d="M 3 28 L 19 28 L 19 43.753906 L 3 43.753906 Z M 3 28 " clip-rule="nonzero"/></clipPath><clipPath id="d12da26eba"><path d="M 17.949219 29.585938 L 17.042969 28.679688 C 16.355469 28 15.238281 28 14.554688 28.683594 C 14.554688 28.683594 3.574219 39.664062 3.5625 39.675781 C 2.882812 40.355469 2.875 41.488281 3.5625 42.167969 C 3.5625 42.167969 4.460938 43.066406 4.460938 43.066406 C 5.140625 43.746094 6.277344 43.753906 6.957031 43.070312 L 9.945312 40.082031 C 10.132812 39.894531 10.132812 39.589844 9.945312 39.402344 C 9.757812 39.214844 9.453125 39.214844 9.265625 39.402344 C 9.265625 39.402344 6.277344 42.386719 6.273438 42.394531 C 5.964844 42.703125 5.453125 42.703125 5.144531 42.390625 C 5.144531 42.390625 4.238281 41.488281 4.238281 41.488281 C 3.929688 41.175781 3.929688 40.664062 4.242188 40.355469 L 10.597656 34 L 12.632812 36.035156 L 10.625 38.042969 C 10.4375 38.230469 10.4375 38.535156 10.625 38.722656 C 10.8125 38.910156 11.113281 38.910156 11.300781 38.722656 L 17.949219 32.078125 C 18.628906 31.394531 18.632812 30.277344 17.949219 29.585938 Z M 11.277344 33.320312 L 12.410156 32.1875 L 14.445312 34.222656 L 13.3125 35.355469 Z M 17.269531 31.398438 L 15.125 33.542969 L 13.089844 31.507812 L 15.234375 29.363281 C 15.542969 29.054688 16.050781 29.050781 16.367188 29.363281 L 17.265625 30.261719 C 17.578125 30.578125 17.578125 31.089844 17.269531 31.398438 Z M 17.269531 31.398438 " clip-rule="nonzero"/></clipPath><linearGradient x1="497.234467" gradientTransform="matrix(0.0128047, 0, 0, 0.0128047, -3.493335, 18.1121)" y1="1387.28296" x2="1727.866221" gradientUnits="userSpaceOnUse" y2="1387.28296" id="5530a5b7e5"><stop stop-opacity="1" stop-color="rgb(99.21875%, 40.388489%, 0%)" offset="0"/><stop stop-opacity="1" stop-color="rgb(99.220276%, 40.499878%, 0%)" offset="0.0625"/><stop stop-opacity="1" stop-color="rgb(99.224854%, 40.742493%, 0%)" offset="0.0703125"/><stop stop-opacity="1" stop-color="rgb(99.230957%, 41.007996%, 0%)" offset="0.078125"/><stop stop-opacity="1" stop-color="rgb(99.235535%, 41.271973%, 0%)" offset="0.0859375"/><stop stop-opacity="1" stop-color="rgb(99.241638%, 41.53595%, 0%)" offset="0.09375"/><stop stop-opacity="1" stop-color="rgb(99.246216%, 41.799927%, 0%)" offset="0.101562"/><stop stop-opacity="1" stop-color="rgb(99.250793%, 42.06543%, 0%)" offset="0.109375"/><stop stop-opacity="1" stop-color="rgb(99.256897%, 42.329407%, 0%)" offset="0.117188"/><stop stop-opacity="1" stop-color="rgb(99.261475%, 42.593384%, 0%)" offset="0.125"/><stop stop-opacity="1" stop-color="rgb(99.266052%, 42.857361%, 0%)" offset="0.132812"/><stop stop-opacity="1" stop-color="rgb(99.272156%, 43.122864%, 0%)" offset="0.140625"/><stop stop-opacity="1" stop-color="rgb(99.276733%, 43.386841%, 0%)" offset="0.148438"/><stop stop-opacity="1" stop-color="rgb(99.281311%, 43.650818%, 0%)" offset="0.15625"/><stop stop-opacity="1" stop-color="rgb(99.287415%, 43.914795%, 0%)" offset="0.164062"/><stop stop-opacity="1" stop-color="rgb(99.291992%, 44.180298%, 0%)" offset="0.171875"/><stop stop-opacity="1" stop-color="rgb(99.29657%, 44.444275%, 0%)" offset="0.179688"/><stop stop-opacity="1" stop-color="rgb(99.302673%, 44.708252%, 0%)" offset="0.1875"/><stop stop-opacity="1" stop-color="rgb(99.307251%, 44.972229%, 0%)" offset="0.195312"/><stop stop-opacity="1" stop-color="rgb(99.311829%, 45.236206%, 0%)" offset="0.203125"/><stop stop-opacity="1" stop-color="rgb(99.317932%, 45.501709%, 0%)" offset="0.210938"/><stop stop-opacity="1" stop-color="rgb(99.32251%, 45.765686%, 0%)" offset="0.21875"/><stop stop-opacity="1" stop-color="rgb(99.327087%, 46.029663%, 0%)" offset="0.226562"/><stop stop-opacity="1" stop-color="rgb(99.333191%, 46.29364%, 0%)" offset="0.234375"/><stop stop-opacity="1" stop-color="rgb(99.337769%, 46.559143%, 0%)" offset="0.242188"/><stop stop-opacity="1" stop-color="rgb(99.342346%, 46.82312%, 0%)" offset="0.25"/><stop stop-opacity="1" stop-color="rgb(99.34845%, 47.087097%, 0%)" offset="0.257812"/><stop stop-opacity="1" stop-color="rgb(99.353027%, 47.351074%, 0%)" offset="0.265625"/><stop stop-opacity="1" stop-color="rgb(99.357605%, 47.616577%, 0%)" offset="0.273438"/><stop stop-opacity="1" stop-color="rgb(99.363708%, 47.880554%, 0%)" offset="0.28125"/><stop stop-opacity="1" stop-color="rgb(99.368286%, 48.144531%, 0%)" offset="0.289062"/><stop stop-opacity="1" stop-color="rgb(99.37439%, 48.408508%, 0%)" offset="0.296875"/><stop stop-opacity="1" stop-color="rgb(99.378967%, 48.674011%, 0%)" offset="0.304688"/><stop stop-opacity="1" stop-color="rgb(99.383545%, 48.937988%, 0%)" offset="0.3125"/><stop stop-opacity="1" stop-color="rgb(99.389648%, 49.201965%, 0%)" offset="0.320312"/><stop stop-opacity="1" stop-color="rgb(99.394226%, 49.465942%, 0%)" offset="0.328125"/><stop stop-opacity="1" stop-color="rgb(99.398804%, 49.731445%, 0%)" offset="0.335938"/><stop stop-opacity="1" stop-color="rgb(99.404907%, 49.995422%, 0%)" offset="0.34375"/><stop stop-opacity="1" stop-color="rgb(99.409485%, 50.259399%, 0%)" offset="0.351563"/><stop stop-opacity="1" stop-color="rgb(99.414062%, 50.523376%, 0%)" offset="0.359375"/><stop stop-opacity="1" stop-color="rgb(99.420166%, 50.788879%, 0%)" offset="0.367188"/><stop stop-opacity="1" stop-color="rgb(99.424744%, 51.052856%, 0%)" offset="0.375"/><stop stop-opacity="1" stop-color="rgb(99.429321%, 51.316833%, 0%)" offset="0.382813"/><stop stop-opacity="1" stop-color="rgb(99.435425%, 51.580811%, 0%)" offset="0.390625"/><stop stop-opacity="1" stop-color="rgb(99.440002%, 51.846313%, 0%)" offset="0.398438"/><stop stop-opacity="1" stop-color="rgb(99.44458%, 52.110291%, 0%)" offset="0.40625"/><stop stop-opacity="1" stop-color="rgb(99.450684%, 52.374268%, 0%)" offset="0.414063"/><stop stop-opacity="1" stop-color="rgb(99.455261%, 52.638245%, 0%)" offset="0.421875"/><stop stop-opacity="1" stop-color="rgb(99.459839%, 52.903748%, 0%)" offset="0.429688"/><stop stop-opacity="1" stop-color="rgb(99.465942%, 53.167725%, 0%)" offset="0.4375"/><stop stop-opacity="1" stop-color="rgb(99.47052%, 53.431702%, 0%)" offset="0.445313"/><stop stop-opacity="1" stop-color="rgb(99.475098%, 53.695679%, 0%)" offset="0.453125"/><stop stop-opacity="1" stop-color="rgb(99.481201%, 53.961182%, 0%)" offset="0.460938"/><stop stop-opacity="1" stop-color="rgb(99.485779%, 54.225159%, 0%)" offset="0.46875"/><stop stop-opacity="1" stop-color="rgb(99.490356%, 54.489136%, 0%)" offset="0.476563"/><stop stop-opacity="1" stop-color="rgb(99.49646%, 54.753113%, 0%)" offset="0.484375"/><stop stop-opacity="1" stop-color="rgb(99.501038%, 55.018616%, 0%)" offset="0.492188"/><stop stop-opacity="1" stop-color="rgb(99.505615%, 55.282593%, 0%)" offset="0.5"/><stop stop-opacity="1" stop-color="rgb(99.511719%, 55.54657%, 0%)" offset="0.507812"/><stop stop-opacity="1" stop-color="rgb(99.516296%, 55.810547%, 0%)" offset="0.515625"/><stop stop-opacity="1" stop-color="rgb(99.5224%, 56.074524%, 0%)" offset="0.523438"/><stop stop-opacity="1" stop-color="rgb(99.526978%, 56.340027%, 0%)" offset="0.53125"/><stop stop-opacity="1" stop-color="rgb(99.531555%, 56.604004%, 0%)" offset="0.539063"/><stop stop-opacity="1" stop-color="rgb(99.537659%, 56.867981%, 0%)" offset="0.546875"/><stop stop-opacity="1" stop-color="rgb(99.542236%, 57.131958%, 0%)" offset="0.554688"/><stop stop-opacity="1" stop-color="rgb(99.546814%, 57.397461%, 0%)" offset="0.5625"/><stop stop-opacity="1" stop-color="rgb(99.552917%, 57.661438%, 0%)" offset="0.570312"/><stop stop-opacity="1" stop-color="rgb(99.557495%, 57.925415%, 0%)" offset="0.578125"/><stop stop-opacity="1" stop-color="rgb(99.562073%, 58.189392%, 0%)" offset="0.585938"/><stop stop-opacity="1" stop-color="rgb(99.568176%, 58.454895%, 0%)" offset="0.59375"/><stop stop-opacity="1" stop-color="rgb(99.572754%, 58.718872%, 0%)" offset="0.601562"/><stop stop-opacity="1" stop-color="rgb(99.577332%, 58.982849%, 0%)" offset="0.609375"/><stop stop-opacity="1" stop-color="rgb(99.583435%, 59.246826%, 0%)" offset="0.617188"/><stop stop-opacity="1" stop-color="rgb(99.588013%, 59.512329%, 0%)" offset="0.625"/><stop stop-opacity="1" stop-color="rgb(99.59259%, 59.776306%, 0%)" offset="0.632812"/><stop stop-opacity="1" stop-color="rgb(99.598694%, 60.040283%, 0%)" offset="0.640625"/><stop stop-opacity="1" stop-color="rgb(99.603271%, 60.30426%, 0%)" offset="0.648438"/><stop stop-opacity="1" stop-color="rgb(99.607849%, 60.569763%, 0%)" offset="0.65625"/><stop stop-opacity="1" stop-color="rgb(99.613953%, 60.83374%, 0%)" offset="0.664063"/><stop stop-opacity="1" stop-color="rgb(99.61853%, 61.097717%, 0%)" offset="0.671875"/><stop stop-opacity="1" stop-color="rgb(99.623108%, 61.361694%, 0%)" offset="0.679688"/><stop stop-opacity="1" stop-color="rgb(99.629211%, 61.627197%, 0%)" offset="0.6875"/><stop stop-opacity="1" stop-color="rgb(99.633789%, 61.891174%, 0%)" offset="0.695312"/><stop stop-opacity="1" stop-color="rgb(99.638367%, 62.155151%, 0%)" offset="0.703125"/><stop stop-opacity="1" stop-color="rgb(99.64447%, 62.419128%, 0%)" offset="0.710938"/><stop stop-opacity="1" stop-color="rgb(99.649048%, 62.684631%, 0%)" offset="0.71875"/><stop stop-opacity="1" stop-color="rgb(99.655151%, 62.948608%, 0%)" offset="0.726562"/><stop stop-opacity="1" stop-color="rgb(99.659729%, 63.212585%, 0%)" offset="0.734375"/><stop stop-opacity="1" stop-color="rgb(99.664307%, 63.476562%, 0%)" offset="0.742187"/><stop stop-opacity="1" stop-color="rgb(99.67041%, 63.742065%, 0%)" offset="0.75"/><stop stop-opacity="1" stop-color="rgb(99.674988%, 64.006042%, 0%)" offset="0.757813"/><stop stop-opacity="1" stop-color="rgb(99.679565%, 64.27002%, 0%)" offset="0.765625"/><stop stop-opacity="1" stop-color="rgb(99.685669%, 64.533997%, 0%)" offset="0.773438"/><stop stop-opacity="1" stop-color="rgb(99.690247%, 64.7995%, 0%)" offset="0.78125"/><stop stop-opacity="1" stop-color="rgb(99.694824%, 65.063477%, 0%)" offset="0.789062"/><stop stop-opacity="1" stop-color="rgb(99.700928%, 65.327454%, 0%)" offset="0.796875"/><stop stop-opacity="1" stop-color="rgb(99.705505%, 65.591431%, 0%)" offset="0.804688"/><stop stop-opacity="1" stop-color="rgb(99.710083%, 65.856934%, 0%)" offset="0.8125"/><stop stop-opacity="1" stop-color="rgb(99.716187%, 66.120911%, 0%)" offset="0.820312"/><stop stop-opacity="1" stop-color="rgb(99.720764%, 66.384888%, 0%)" offset="0.828125"/><stop stop-opacity="1" stop-color="rgb(99.725342%, 66.648865%, 0%)" offset="0.835937"/><stop stop-opacity="1" stop-color="rgb(99.731445%, 66.912842%, 0%)" offset="0.84375"/><stop stop-opacity="1" stop-color="rgb(99.736023%, 67.178345%, 0%)" offset="0.851563"/><stop stop-opacity="1" stop-color="rgb(99.740601%, 67.442322%, 0%)" offset="0.859375"/><stop stop-opacity="1" stop-color="rgb(99.746704%, 67.706299%, 0%)" offset="0.867188"/><stop stop-opacity="1" stop-color="rgb(99.751282%, 67.970276%, 0%)" offset="0.875"/><stop stop-opacity="1" stop-color="rgb(99.755859%, 68.235779%, 0%)" offset="0.882812"/><stop stop-opacity="1" stop-color="rgb(99.761963%, 68.499756%, 0%)" offset="0.890625"/><stop stop-opacity="1" stop-color="rgb(99.766541%, 68.763733%, 0%)" offset="0.898438"/><stop stop-opacity="1" stop-color="rgb(99.771118%, 69.02771%, 0%)" offset="0.90625"/><stop stop-opacity="1" stop-color="rgb(99.777222%, 69.293213%, 0%)" offset="0.914062"/><stop stop-opacity="1" stop-color="rgb(99.781799%, 69.55719%, 0%)" offset="0.921875"/><stop stop-opacity="1" stop-color="rgb(99.786377%, 69.821167%, 0%)" offset="0.929687"/><stop stop-opacity="1" stop-color="rgb(99.79248%, 70.085144%, 0%)" offset="0.9375"/><stop stop-opacity="1" stop-color="rgb(99.797058%, 70.350647%, 0%)" offset="0.945313"/><stop stop-opacity="1" stop-color="rgb(99.803162%, 70.614624%, 0%)" offset="0.953125"/><stop stop-opacity="1" stop-color="rgb(99.807739%, 70.878601%, 0%)" offset="0.960938"/><stop stop-opacity="1" stop-color="rgb(99.812317%, 71.142578%, 0%)" offset="0.96875"/><stop stop-opacity="1" stop-color="rgb(99.81842%, 71.408081%, 0%)" offset="0.976563"/><stop stop-opacity="1" stop-color="rgb(99.822998%, 71.672058%, 0%)" offset="0.984375"/><stop stop-opacity="1" stop-color="rgb(99.827576%, 71.936035%, 0%)" offset="0.992188"/><stop stop-opacity="1" stop-color="rgb(99.833679%, 72.200012%, 0%)" offset="1"/></linearGradient><clipPath id="5d7bbc94ae"><path d="M 18 25 L 21 25 L 21 29 L 18 29 Z M 18 25 " clip-rule="nonzero"/></clipPath><clipPath id="3e17c7fba9"><path d="M 19.230469 28.082031 C 19.230469 28.082031 20.507812 26.800781 20.507812 26.800781 C 20.695312 26.613281 20.695312 26.308594 20.507812 26.121094 C 20.320312 25.933594 20.019531 25.933594 19.828125 26.121094 L 18.550781 27.402344 C 18.363281 27.589844 18.363281 27.894531 18.550781 28.082031 C 18.730469 28.261719 19.042969 28.265625 19.230469 28.082031 Z M 19.230469 28.082031 " clip-rule="nonzero"/></clipPath><linearGradient x1="1706.821322" gradientTransform="matrix(0.0128047, 0, 0, 0.0128047, -3.493335, 18.1121)" y1="701.966" x2="1889.145515" gradientUnits="userSpaceOnUse" y2="701.966" id="cd3a2ffd46"><stop stop-opacity="1" stop-color="rgb(99.824524%, 71.754456%, 0%)" offset="0"/><stop stop-opacity="1" stop-color="rgb(99.827576%, 71.910095%, 0%)" offset="0.0625"/><stop stop-opacity="1" stop-color="rgb(99.833679%, 72.224426%, 0%)" offset="0.125"/><stop stop-opacity="1" stop-color="rgb(99.839783%, 72.537231%, 0%)" offset="0.1875"/><stop stop-opacity="1" stop-color="rgb(99.845886%, 72.850037%, 0%)" offset="0.25"/><stop stop-opacity="1" stop-color="rgb(99.85199%, 73.164368%, 0%)" offset="0.3125"/><stop stop-opacity="1" stop-color="rgb(99.858093%, 73.477173%, 0%)" offset="0.375"/><stop stop-opacity="1" stop-color="rgb(99.864197%, 73.789978%, 0%)" offset="0.4375"/><stop stop-opacity="1" stop-color="rgb(99.8703%, 74.104309%, 0%)" offset="0.5"/><stop stop-opacity="1" stop-color="rgb(99.876404%, 74.417114%, 0%)" offset="0.5625"/><stop stop-opacity="1" stop-color="rgb(99.882507%, 74.731445%, 0%)" offset="0.625"/><stop stop-opacity="1" stop-color="rgb(99.888611%, 75.04425%, 0%)" offset="0.6875"/><stop stop-opacity="1" stop-color="rgb(99.894714%, 75.357056%, 0%)" offset="0.75"/><stop stop-opacity="1" stop-color="rgb(99.900818%, 75.671387%, 0%)" offset="0.8125"/><stop stop-opacity="1" stop-color="rgb(99.906921%, 75.984192%, 0%)" offset="0.875"/><stop stop-opacity="1" stop-color="rgb(99.913025%, 76.296997%, 0%)" offset="0.9375"/><stop stop-opacity="1" stop-color="rgb(99.919128%, 76.611328%, 0%)" offset="1"/></linearGradient><clipPath id="ba4e926157"><path d="M 19 29 L 21.976562 29 L 21.976562 31 L 19 31 Z M 19 29 " clip-rule="nonzero"/></clipPath><clipPath id="8e267cb4b2"><path d="M 21.496094 29.183594 L 19.683594 29.183594 C 19.417969 29.183594 19.203125 29.398438 19.203125 29.664062 C 19.203125 29.929688 19.417969 30.144531 19.683594 30.144531 L 21.496094 30.144531 C 21.761719 30.144531 21.976562 29.929688 21.976562 29.664062 C 21.976562 29.398438 21.761719 29.183594 21.496094 29.183594 Z M 21.496094 29.183594 " clip-rule="nonzero"/></clipPath><linearGradient x1="1772.59282" gradientTransform="matrix(0.0128047, 0, 0, 0.0128047, -3.493335, 18.1121)" y1="902.11102" x2="1988.999806" gradientUnits="userSpaceOnUse" y2="902.11102" id="5381253bc2"><stop stop-opacity="1" stop-color="rgb(99.859619%, 73.562622%, 0%)" offset="0"/><stop stop-opacity="1" stop-color="rgb(99.862671%, 73.748779%, 0%)" offset="0.0625"/><stop stop-opacity="1" stop-color="rgb(99.8703%, 74.121094%, 0%)" offset="0.125"/><stop stop-opacity="1" stop-color="rgb(99.87793%, 74.491882%, 0%)" offset="0.1875"/><stop stop-opacity="1" stop-color="rgb(99.884033%, 74.864197%, 0%)" offset="0.25"/><stop stop-opacity="1" stop-color="rgb(99.891663%, 75.236511%, 0%)" offset="0.3125"/><stop stop-opacity="1" stop-color="rgb(99.899292%, 75.608826%, 0%)" offset="0.375"/><stop stop-opacity="1" stop-color="rgb(99.905396%, 75.979614%, 0%)" offset="0.4375"/><stop stop-opacity="1" stop-color="rgb(99.913025%, 76.351929%, 0%)" offset="0.5"/><stop stop-opacity="1" stop-color="rgb(99.920654%, 76.724243%, 0%)" offset="0.5625"/><stop stop-opacity="1" stop-color="rgb(99.928284%, 77.096558%, 0%)" offset="0.625"/><stop stop-opacity="1" stop-color="rgb(99.934387%, 77.467346%, 0%)" offset="0.6875"/><stop stop-opacity="1" stop-color="rgb(99.942017%, 77.839661%, 0%)" offset="0.75"/><stop stop-opacity="1" stop-color="rgb(99.949646%, 78.211975%, 0%)" offset="0.8125"/><stop stop-opacity="1" stop-color="rgb(99.95575%, 78.582764%, 0%)" offset="0.875"/><stop stop-opacity="1" stop-color="rgb(99.963379%, 78.955078%, 0%)" offset="0.9375"/><stop stop-opacity="1" stop-color="rgb(99.971008%, 79.327393%, 0%)" offset="1"/></linearGradient><clipPath id="ddceffd0be"><path d="M 16 24.652344 L 18 24.652344 L 18 28 L 16 28 Z M 16 24.652344 " clip-rule="nonzero"/></clipPath><clipPath id="ce37bbb112"><path d="M 16.96875 27.425781 C 17.234375 27.425781 17.449219 27.210938 17.449219 26.945312 L 17.449219 25.136719 C 17.449219 24.871094 17.234375 24.65625 16.96875 24.65625 C 16.703125 24.65625 16.488281 24.871094 16.488281 25.136719 L 16.488281 26.945312 C 16.488281 27.210938 16.703125 27.425781 16.96875 27.425781 Z M 16.96875 27.425781 " clip-rule="nonzero"/></clipPath><linearGradient x1="1560.483448" gradientTransform="matrix(0.0128047, 0, 0, 0.0128047, -3.493335, 18.1121)" y1="619.26099" x2="1635.483445" gradientUnits="userSpaceOnUse" y2="619.26099" id="aa5e1e8770"><stop stop-opacity="1" stop-color="rgb(99.746704%, 67.730713%, 0%)" offset="0"/><stop stop-opacity="1" stop-color="rgb(99.749756%, 67.858887%, 0%)" offset="0.125"/><stop stop-opacity="1" stop-color="rgb(99.754333%, 68.11676%, 0%)" offset="0.25"/><stop stop-opacity="1" stop-color="rgb(99.758911%, 68.374634%, 0%)" offset="0.375"/><stop stop-opacity="1" stop-color="rgb(99.763489%, 68.632507%, 0%)" offset="0.5"/><stop stop-opacity="1" stop-color="rgb(99.769592%, 68.890381%, 0%)" offset="0.625"/><stop stop-opacity="1" stop-color="rgb(99.77417%, 69.148254%, 0%)" offset="0.75"/><stop stop-opacity="1" stop-color="rgb(99.778748%, 69.406128%, 0%)" offset="0.875"/><stop stop-opacity="1" stop-color="rgb(99.783325%, 69.664001%, 0%)" offset="1"/></linearGradient><clipPath id="43d3aafd05"><path d="M 10 25 L 14 25 L 14 29 L 10 29 Z M 10 25 " clip-rule="nonzero"/></clipPath><clipPath id="59e3348f44"><path d="M 10.566406 27.582031 L 11.367188 27.582031 L 11.367188 28.382812 C 11.367188 28.648438 11.582031 28.863281 11.847656 28.863281 C 12.113281 28.863281 12.328125 28.648438 12.328125 28.382812 L 12.328125 27.582031 L 13.125 27.582031 C 13.390625 27.582031 13.605469 27.367188 13.605469 27.101562 C 13.605469 26.835938 13.390625 26.621094 13.125 26.621094 L 12.328125 26.621094 L 12.328125 25.820312 C 12.328125 25.558594 12.113281 25.339844 11.847656 25.339844 C 11.582031 25.339844 11.367188 25.558594 11.367188 25.820312 L 11.367188 26.621094 L 10.566406 26.621094 C 10.300781 26.621094 10.085938 26.835938 10.085938 27.101562 C 10.085938 27.367188 10.300781 27.582031 10.566406 27.582031 Z M 10.566406 27.582031 " clip-rule="nonzero"/></clipPath><linearGradient x1="1060.483466" gradientTransform="matrix(0.0128047, 0, 0, 0.0128047, -3.493335, 18.1121)" y1="702.11102" x2="1335.483456" gradientUnits="userSpaceOnUse" y2="702.11102" id="81e5d0925d"><stop stop-opacity="1" stop-color="rgb(99.481201%, 53.98407%, 0%)" offset="0"/><stop stop-opacity="1" stop-color="rgb(99.482727%, 54.101562%, 0%)" offset="0.03125"/><stop stop-opacity="1" stop-color="rgb(99.487305%, 54.336548%, 0%)" offset="0.0625"/><stop stop-opacity="1" stop-color="rgb(99.491882%, 54.573059%, 0%)" offset="0.09375"/><stop stop-opacity="1" stop-color="rgb(99.49646%, 54.80957%, 0%)" offset="0.125"/><stop stop-opacity="1" stop-color="rgb(99.501038%, 55.046082%, 0%)" offset="0.15625"/><stop stop-opacity="1" stop-color="rgb(99.505615%, 55.282593%, 0%)" offset="0.1875"/><stop stop-opacity="1" stop-color="rgb(99.510193%, 55.519104%, 0%)" offset="0.21875"/><stop stop-opacity="1" stop-color="rgb(99.514771%, 55.755615%, 0%)" offset="0.25"/><stop stop-opacity="1" stop-color="rgb(99.519348%, 55.990601%, 0%)" offset="0.28125"/><stop stop-opacity="1" stop-color="rgb(99.523926%, 56.227112%, 0%)" offset="0.3125"/><stop stop-opacity="1" stop-color="rgb(99.528503%, 56.463623%, 0%)" offset="0.34375"/><stop stop-opacity="1" stop-color="rgb(99.533081%, 56.700134%, 0%)" offset="0.375"/><stop stop-opacity="1" stop-color="rgb(99.537659%, 56.936646%, 0%)" offset="0.40625"/><stop stop-opacity="1" stop-color="rgb(99.542236%, 57.173157%, 0%)" offset="0.4375"/><stop stop-opacity="1" stop-color="rgb(99.546814%, 57.408142%, 0%)" offset="0.46875"/><stop stop-opacity="1" stop-color="rgb(99.551392%, 57.644653%, 0%)" offset="0.5"/><stop stop-opacity="1" stop-color="rgb(99.555969%, 57.881165%, 0%)" offset="0.53125"/><stop stop-opacity="1" stop-color="rgb(99.560547%, 58.117676%, 0%)" offset="0.5625"/><stop stop-opacity="1" stop-color="rgb(99.565125%, 58.354187%, 0%)" offset="0.59375"/><stop stop-opacity="1" stop-color="rgb(99.569702%, 58.590698%, 0%)" offset="0.625"/><stop stop-opacity="1" stop-color="rgb(99.57428%, 58.827209%, 0%)" offset="0.65625"/><stop stop-opacity="1" stop-color="rgb(99.578857%, 59.062195%, 0%)" offset="0.6875"/><stop stop-opacity="1" stop-color="rgb(99.583435%, 59.298706%, 0%)" offset="0.71875"/><stop stop-opacity="1" stop-color="rgb(99.588013%, 59.535217%, 0%)" offset="0.75"/><stop stop-opacity="1" stop-color="rgb(99.59259%, 59.771729%, 0%)" offset="0.78125"/><stop stop-opacity="1" stop-color="rgb(99.597168%, 60.00824%, 0%)" offset="0.8125"/><stop stop-opacity="1" stop-color="rgb(99.601746%, 60.244751%, 0%)" offset="0.84375"/><stop stop-opacity="1" stop-color="rgb(99.606323%, 60.481262%, 0%)" offset="0.875"/><stop stop-opacity="1" stop-color="rgb(99.610901%, 60.716248%, 0%)" offset="0.90625"/><stop stop-opacity="1" stop-color="rgb(99.615479%, 60.952759%, 0%)" offset="0.9375"/><stop stop-opacity="1" stop-color="rgb(99.620056%, 61.18927%, 0%)" offset="0.96875"/><stop stop-opacity="1" stop-color="rgb(99.624634%, 61.425781%, 0%)" offset="1"/></linearGradient><clipPath id="8cf1afab1a"><path d="M 17 33 L 21.976562 33 L 21.976562 37 L 17 37 Z M 17 33 " clip-rule="nonzero"/></clipPath><clipPath id="d9b2ca0444"><path d="M 20.808594 34.304688 L 20.007812 34.304688 L 20.007812 33.503906 C 20.007812 33.238281 19.792969 33.023438 19.527344 33.023438 C 19.265625 33.023438 19.050781 33.238281 19.050781 33.503906 L 19.050781 34.304688 L 18.25 34.304688 C 17.984375 34.304688 17.769531 34.519531 17.769531 34.785156 C 17.769531 35.050781 17.984375 35.265625 18.25 35.265625 L 19.050781 35.265625 L 19.050781 36.066406 C 19.050781 36.332031 19.265625 36.546875 19.527344 36.546875 C 19.792969 36.546875 20.007812 36.332031 20.007812 36.066406 L 20.007812 35.265625 L 20.808594 35.265625 C 21.074219 35.265625 21.289062 35.050781 21.289062 34.785156 C 21.289062 34.519531 21.074219 34.304688 20.808594 34.304688 Z M 20.808594 34.304688 " clip-rule="nonzero"/></clipPath><linearGradient x1="1660.483444" gradientTransform="matrix(0.0128047, 0, 0, 0.0128047, -3.493335, 18.1121)" y1="1302.11096" x2="1935.483414" gradientUnits="userSpaceOnUse" y2="1302.11096" id="e101d44ae8"><stop stop-opacity="1" stop-color="rgb(99.80011%, 70.480347%, 0%)" offset="0"/><stop stop-opacity="1" stop-color="rgb(99.801636%, 70.597839%, 0%)" offset="0.03125"/><stop stop-opacity="1" stop-color="rgb(99.806213%, 70.834351%, 0%)" offset="0.0625"/><stop stop-opacity="1" stop-color="rgb(99.810791%, 71.070862%, 0%)" offset="0.09375"/><stop stop-opacity="1" stop-color="rgb(99.815369%, 71.307373%, 0%)" offset="0.125"/><stop stop-opacity="1" stop-color="rgb(99.819946%, 71.543884%, 0%)" offset="0.15625"/><stop stop-opacity="1" stop-color="rgb(99.824524%, 71.77887%, 0%)" offset="0.1875"/><stop stop-opacity="1" stop-color="rgb(99.829102%, 72.015381%, 0%)" offset="0.21875"/><stop stop-opacity="1" stop-color="rgb(99.833679%, 72.251892%, 0%)" offset="0.25"/><stop stop-opacity="1" stop-color="rgb(99.838257%, 72.488403%, 0%)" offset="0.28125"/><stop stop-opacity="1" stop-color="rgb(99.842834%, 72.724915%, 0%)" offset="0.3125"/><stop stop-opacity="1" stop-color="rgb(99.847412%, 72.961426%, 0%)" offset="0.34375"/><stop stop-opacity="1" stop-color="rgb(99.85199%, 73.197937%, 0%)" offset="0.375"/><stop stop-opacity="1" stop-color="rgb(99.856567%, 73.432922%, 0%)" offset="0.40625"/><stop stop-opacity="1" stop-color="rgb(99.861145%, 73.669434%, 0%)" offset="0.4375"/><stop stop-opacity="1" stop-color="rgb(99.865723%, 73.905945%, 0%)" offset="0.46875"/><stop stop-opacity="1" stop-color="rgb(99.8703%, 74.142456%, 0%)" offset="0.5"/><stop stop-opacity="1" stop-color="rgb(99.874878%, 74.378967%, 0%)" offset="0.53125"/><stop stop-opacity="1" stop-color="rgb(99.879456%, 74.615479%, 0%)" offset="0.5625"/><stop stop-opacity="1" stop-color="rgb(99.884033%, 74.85199%, 0%)" offset="0.59375"/><stop stop-opacity="1" stop-color="rgb(99.888611%, 75.086975%, 0%)" offset="0.625"/><stop stop-opacity="1" stop-color="rgb(99.893188%, 75.323486%, 0%)" offset="0.65625"/><stop stop-opacity="1" stop-color="rgb(99.897766%, 75.559998%, 0%)" offset="0.6875"/><stop stop-opacity="1" stop-color="rgb(99.902344%, 75.796509%, 0%)" offset="0.71875"/><stop stop-opacity="1" stop-color="rgb(99.906921%, 76.03302%, 0%)" offset="0.75"/><stop stop-opacity="1" stop-color="rgb(99.911499%, 76.269531%, 0%)" offset="0.78125"/><stop stop-opacity="1" stop-color="rgb(99.916077%, 76.506042%, 0%)" offset="0.8125"/><stop stop-opacity="1" stop-color="rgb(99.920654%, 76.741028%, 0%)" offset="0.84375"/><stop stop-opacity="1" stop-color="rgb(99.925232%, 76.977539%, 0%)" offset="0.875"/><stop stop-opacity="1" stop-color="rgb(99.92981%, 77.21405%, 0%)" offset="0.90625"/><stop stop-opacity="1" stop-color="rgb(99.934387%, 77.450562%, 0%)" offset="0.9375"/><stop stop-opacity="1" stop-color="rgb(99.938965%, 77.687073%, 0%)" offset="0.96875"/><stop stop-opacity="1" stop-color="rgb(99.943542%, 77.923584%, 0%)" offset="1"/></linearGradient></defs><g clip-path="url(#a11bc812f4)"><path fill="#ffbd59" d="M 24.496094 6.660156 C 26.585938 12.308594 31.039062 16.765625 36.691406 18.855469 C 31.039062 20.945312 26.585938 25.398438 24.496094 31.050781 C 22.40625 25.398438 17.949219 20.945312 12.300781 18.855469 C 17.949219 16.765625 22.40625 12.308594 24.496094 6.660156 Z M 24.496094 6.660156 " fill-opacity="1" fill-rule="nonzero"/></g><g clip-path="url(#8d1b95bda0)"><path fill="#ffbd59" d="M 34.582031 3.199219 C 34.941406 6.28125 37.371094 8.714844 40.457031 9.070312 C 37.371094 9.425781 34.941406 11.859375 34.582031 14.941406 C 34.226562 11.859375 31.792969 9.425781 28.710938 9.070312 C 31.792969 8.714844 34.226562 6.28125 34.582031 3.199219 Z M 34.582031 3.199219 " fill-opacity="1" fill-rule="nonzero"/></g><path fill="#ffbd59" d="M 32.472656 23.671875 C 32.628906 25.015625 33.6875 26.078125 35.03125 26.230469 C 33.6875 26.386719 32.628906 27.445312 32.472656 28.789062 C 32.320312 27.445312 31.257812 26.386719 29.914062 26.230469 C 31.257812 26.078125 32.320312 25.015625 32.472656 23.671875 Z M 32.472656 23.671875 " fill-opacity="1" fill-rule="nonzero"/><g mask="url(#77b971919c)"><g transform="matrix(1, 0, 0, 1, 29, 23)"><g clip-path="url(#c6da44bd1a)"><g clip-path="url(#a9b77ead03)"><path fill="#ff3131" d="M 3.472656 0.671875 C 3.628906 2.015625 4.6875 3.078125 6.03125 3.230469 C 4.6875 3.386719 3.628906 4.445312 3.472656 5.789062 C 3.320312 4.445312 2.257812 3.386719 0.914062 3.230469 C 2.257812 3.078125 3.320312 2.015625 3.472656 0.671875 Z M 3.472656 0.671875 " fill-opacity="1" fill-rule="nonzero"/></g></g></g></g><g clip-path="url(#fcc6b15ac0)"><g mask="url(#d55cd5e3be)"><g transform="matrix(1, 0, 0, 1, 12, 6)"><g clip-path="url(#ec7932083e)"><g clip-path="url(#cfcd688267)"><path fill="#ff3131" d="M 17.417969 8.25 C 15.261719 6.136719 13.566406 3.558594 12.496094 0.660156 C 10.40625 6.308594 5.949219 10.765625 0.300781 12.855469 C 2.074219 13.511719 3.730469 14.402344 5.230469 15.484375 C 8.015625 11.777344 12.363281 9.105469 17.417969 8.25 Z M 17.417969 8.25 " fill-opacity="1" fill-rule="nonzero"/></g></g></g></g></g><g clip-path="url(#d3a45bb935)"><g mask="url(#6d52b28ab5)"><g transform="matrix(1, 0, 0, 1, 28, 3)"><g clip-path="url(#fdc89776af)"><g clip-path="url(#68b472342e)"><path fill="#ff3131" d="M 9.214844 4.777344 C 7.785156 3.703125 6.800781 2.070312 6.582031 0.199219 C 6.226562 3.28125 3.792969 5.714844 0.710938 6.070312 C 1.933594 6.210938 3.050781 6.679688 3.980469 7.382812 C 5.503906 6.175781 7.277344 5.277344 9.214844 4.777344 Z M 9.214844 4.777344 " fill-opacity="1" fill-rule="nonzero"/></g></g></g></g></g><path fill="#ffffff" d="M 25.222656 15.628906 L 23.132812 21.265625 L 24.5 21.265625 C 24.5 21.265625 24.847656 20.332031 24.847656 20.332031 L 26.988281 20.332031 C 26.988281 20.332031 27.339844 21.265625 27.339844 21.265625 L 28.710938 21.265625 C 28.710938 21.265625 26.621094 15.628906 26.621094 15.628906 Z M 25.265625 19.199219 L 25.925781 17.449219 L 26.570312 19.199219 Z M 25.265625 19.199219 " fill-opacity="1" fill-rule="nonzero"/><path fill="#ffffff" d="M 20.96875 15.628906 L 22.3125 15.628906 L 22.3125 21.265625 L 20.96875 21.265625 Z M 20.96875 15.628906 " fill-opacity="1" fill-rule="nonzero"/><g clip-path="url(#8b6fe06434)"><g clip-path="url(#d12da26eba)"><path fill="url(#5530a5b7e5)" d="M 2.875 28 L 2.875 43.753906 L 18.632812 43.753906 L 18.632812 28 Z M 2.875 28 " fill-rule="nonzero"/></g></g><g clip-path="url(#5d7bbc94ae)"><g clip-path="url(#3e17c7fba9)"><path fill="url(#cd3a2ffd46)" d="M 18.363281 25.933594 L 18.363281 28.265625 L 20.695312 28.265625 L 20.695312 25.933594 Z M 18.363281 25.933594 " fill-rule="nonzero"/></g></g><g clip-path="url(#ba4e926157)"><g clip-path="url(#8e267cb4b2)"><path fill="url(#5381253bc2)" d="M 19.203125 29.183594 L 19.203125 30.144531 L 21.976562 30.144531 L 21.976562 29.183594 Z M 19.203125 29.183594 " fill-rule="nonzero"/></g></g><g clip-path="url(#ddceffd0be)"><g clip-path="url(#ce37bbb112)"><path fill="url(#aa5e1e8770)" d="M 16.488281 24.65625 L 16.488281 27.425781 L 17.449219 27.425781 L 17.449219 24.65625 Z M 16.488281 24.65625 " fill-rule="nonzero"/></g></g><g clip-path="url(#43d3aafd05)"><g clip-path="url(#59e3348f44)"><path fill="url(#81e5d0925d)" d="M 10.085938 25.339844 L 10.085938 28.863281 L 13.605469 28.863281 L 13.605469 25.339844 Z M 10.085938 25.339844 " fill-rule="nonzero"/></g></g><g clip-path="url(#8cf1afab1a)"><g clip-path="url(#d9b2ca0444)"><path fill="url(#e101d44ae8)" d="M 17.769531 33.023438 L 17.769531 36.546875 L 21.289062 36.546875 L 21.289062 33.023438 Z M 17.769531 33.023438 " fill-rule="nonzero"/></g></g></svg>