<svg width="24" height="24" viewBox="0 0 24 24" fill="none" xmlns="http://www.w3.org/2000/svg">
<path d="M12.031 1.956C6.003 1.956 1.09 6.864 1.09 12.887C1.09 14.795 1.625 16.589 2.574 18.131L1 23L6.032 21.456C7.515 22.316 9.224 22.787 11.026 22.787H11.031C17.055 22.787 22 17.879 22 11.856C22 8.942 20.868 6.213 18.822 4.169C16.777 2.125 14.045 1.956 12.031 1.956ZM12.031 3.868C13.614 3.868 15.911 4.023 17.526 5.636C18.993 7.102 20.088 9.377 20.088 11.856C20.088 16.824 16 20.875 11.031 20.875H11.026C9.389 20.875 7.794 20.427 6.415 19.586L6.121 19.409L3.299 20.175L4.077 17.428L3.881 17.121C2.959 15.685 2.468 14.01 2.468 12.282C2.468 7.919 6.519 3.868 12.031 3.868ZM8.503 7.288C8.321 7.288 8.011 7.349 7.744 7.614C7.478 7.879 6.747 8.558 6.747 9.938C6.747 11.318 7.771 12.648 7.913 12.831C8.055 13.013 9.912 15.907 12.78 17.092C15.197 18.096 15.648 17.914 16.128 17.865C16.608 17.816 17.757 17.164 17.975 16.485C18.193 15.806 18.193 15.225 18.129 15.115C18.065 15.004 17.883 14.94 17.617 14.812C17.351 14.684 15.966 13.995 15.723 13.909C15.481 13.823 15.299 13.781 15.117 14.046C14.935 14.311 14.389 14.94 14.229 15.122C14.069 15.304 13.909 15.326 13.643 15.198C13.377 15.07 12.533 14.795 11.529 13.909C10.748 13.215 10.221 12.356 10.061 12.09C9.901 11.825 10.046 11.672 10.174 11.544C10.29 11.429 10.44 11.243 10.568 11.083C10.696 10.923 10.738 10.805 10.824 10.623C10.91 10.441 10.867 10.281 10.803 10.153C10.738 10.025 10.221 8.638 9.999 8.108C9.777 7.578 9.545 7.656 9.384 7.647C9.224 7.638 9.042 7.638 8.86 7.638C8.678 7.638 8.372 7.702 8.106 7.968C7.84 8.233 7.109 8.912 7.109 10.292C7.109 11.672 8.133 13.002 8.275 13.184C8.417 13.366 10.221 16.183 12.993 17.387C15.765 18.591 15.765 18.183 16.297 18.134C16.829 18.085 18.021 17.408 18.243 16.707C18.465 16.006 18.465 15.398 18.401 15.287C18.337 15.176 18.155 15.112 17.889 14.984L8.503 7.288Z" fill="white"/>
</svg>
